G04 EAGLE Gerber X2 export*
G75*
%MOMM*%
%FSLAX34Y34*%
%LPD*%
%AMOC8*
5,1,8,0,0,1.08239X$1,22.5*%
G01*
%ADD10C,0.050800*%
%ADD11C,0.406400*%


D10*
X10567Y82296D02*
X12091Y77724D01*
X13615Y82296D01*
X16394Y77724D02*
X17410Y77724D01*
X16394Y77724D02*
X16333Y77726D01*
X16272Y77731D01*
X16211Y77741D01*
X16151Y77754D01*
X16092Y77770D01*
X16034Y77790D01*
X15977Y77814D01*
X15922Y77840D01*
X15868Y77871D01*
X15817Y77904D01*
X15767Y77940D01*
X15720Y77980D01*
X15676Y78022D01*
X15634Y78066D01*
X15594Y78113D01*
X15558Y78163D01*
X15525Y78214D01*
X15494Y78268D01*
X15468Y78323D01*
X15444Y78380D01*
X15424Y78438D01*
X15408Y78497D01*
X15395Y78557D01*
X15385Y78618D01*
X15380Y78679D01*
X15378Y78740D01*
X15378Y81280D01*
X15380Y81341D01*
X15385Y81402D01*
X15395Y81463D01*
X15408Y81523D01*
X15424Y81582D01*
X15444Y81640D01*
X15468Y81697D01*
X15494Y81752D01*
X15525Y81806D01*
X15558Y81857D01*
X15594Y81907D01*
X15634Y81954D01*
X15676Y81998D01*
X15720Y82040D01*
X15767Y82080D01*
X15817Y82116D01*
X15868Y82149D01*
X15922Y82180D01*
X15977Y82206D01*
X16034Y82230D01*
X16092Y82250D01*
X16151Y82266D01*
X16211Y82279D01*
X16272Y82289D01*
X16333Y82294D01*
X16394Y82296D01*
X17410Y82296D01*
X20204Y77724D02*
X21220Y77724D01*
X20204Y77724D02*
X20143Y77726D01*
X20082Y77731D01*
X20021Y77741D01*
X19961Y77754D01*
X19902Y77770D01*
X19844Y77790D01*
X19787Y77814D01*
X19732Y77840D01*
X19678Y77871D01*
X19627Y77904D01*
X19577Y77940D01*
X19530Y77980D01*
X19486Y78022D01*
X19444Y78066D01*
X19404Y78113D01*
X19368Y78163D01*
X19335Y78214D01*
X19304Y78268D01*
X19278Y78323D01*
X19254Y78380D01*
X19234Y78438D01*
X19218Y78497D01*
X19205Y78557D01*
X19195Y78618D01*
X19190Y78679D01*
X19188Y78740D01*
X19188Y81280D01*
X19190Y81341D01*
X19195Y81402D01*
X19205Y81463D01*
X19218Y81523D01*
X19234Y81582D01*
X19254Y81640D01*
X19278Y81697D01*
X19304Y81752D01*
X19335Y81806D01*
X19368Y81857D01*
X19404Y81907D01*
X19444Y81954D01*
X19486Y81998D01*
X19530Y82040D01*
X19577Y82080D01*
X19627Y82116D01*
X19678Y82149D01*
X19732Y82180D01*
X19787Y82206D01*
X19844Y82230D01*
X19902Y82250D01*
X19961Y82266D01*
X20021Y82279D01*
X20082Y82289D01*
X20143Y82294D01*
X20204Y82296D01*
X21220Y82296D01*
X80467Y77724D02*
X80528Y77726D01*
X80589Y77731D01*
X80650Y77741D01*
X80710Y77754D01*
X80769Y77770D01*
X80827Y77790D01*
X80884Y77814D01*
X80939Y77840D01*
X80993Y77871D01*
X81044Y77904D01*
X81094Y77940D01*
X81141Y77980D01*
X81185Y78022D01*
X81227Y78066D01*
X81267Y78113D01*
X81303Y78163D01*
X81336Y78214D01*
X81367Y78268D01*
X81393Y78323D01*
X81417Y78380D01*
X81437Y78438D01*
X81453Y78497D01*
X81466Y78557D01*
X81476Y78618D01*
X81481Y78679D01*
X81483Y78740D01*
X80467Y77724D02*
X80378Y77726D01*
X80289Y77731D01*
X80200Y77741D01*
X80112Y77754D01*
X80024Y77770D01*
X79937Y77790D01*
X79852Y77814D01*
X79767Y77842D01*
X79683Y77872D01*
X79601Y77907D01*
X79520Y77944D01*
X79441Y77985D01*
X79363Y78030D01*
X79288Y78077D01*
X79214Y78128D01*
X79143Y78181D01*
X79074Y78238D01*
X79007Y78297D01*
X78943Y78359D01*
X79070Y81280D02*
X79072Y81341D01*
X79077Y81402D01*
X79087Y81463D01*
X79100Y81523D01*
X79116Y81582D01*
X79136Y81640D01*
X79160Y81697D01*
X79186Y81752D01*
X79217Y81806D01*
X79250Y81857D01*
X79286Y81907D01*
X79326Y81954D01*
X79368Y81998D01*
X79412Y82040D01*
X79459Y82080D01*
X79509Y82116D01*
X79560Y82149D01*
X79614Y82180D01*
X79669Y82206D01*
X79726Y82230D01*
X79784Y82250D01*
X79843Y82266D01*
X79903Y82279D01*
X79964Y82289D01*
X80025Y82294D01*
X80086Y82296D01*
X80168Y82294D01*
X80249Y82289D01*
X80330Y82280D01*
X80411Y82268D01*
X80491Y82252D01*
X80571Y82233D01*
X80650Y82211D01*
X80727Y82185D01*
X80803Y82156D01*
X80878Y82123D01*
X80952Y82088D01*
X81024Y82049D01*
X81094Y82007D01*
X81163Y81963D01*
X81229Y81915D01*
X79578Y80391D02*
X79525Y80425D01*
X79474Y80461D01*
X79425Y80501D01*
X79379Y80544D01*
X79335Y80590D01*
X79294Y80638D01*
X79257Y80688D01*
X79222Y80741D01*
X79191Y80796D01*
X79163Y80852D01*
X79139Y80910D01*
X79118Y80970D01*
X79101Y81030D01*
X79087Y81092D01*
X79078Y81154D01*
X79072Y81217D01*
X79070Y81280D01*
X80975Y79629D02*
X81028Y79595D01*
X81079Y79559D01*
X81128Y79519D01*
X81174Y79476D01*
X81218Y79430D01*
X81259Y79382D01*
X81296Y79332D01*
X81331Y79279D01*
X81362Y79224D01*
X81390Y79168D01*
X81414Y79110D01*
X81435Y79050D01*
X81452Y78990D01*
X81466Y78928D01*
X81475Y78866D01*
X81481Y78803D01*
X81483Y78740D01*
X80975Y79629D02*
X79578Y80391D01*
X83515Y82296D02*
X83515Y77724D01*
X83515Y82296D02*
X84785Y82296D01*
X84854Y82294D01*
X84922Y82289D01*
X84990Y82279D01*
X85058Y82266D01*
X85125Y82250D01*
X85191Y82230D01*
X85255Y82206D01*
X85318Y82179D01*
X85380Y82148D01*
X85440Y82114D01*
X85498Y82077D01*
X85554Y82037D01*
X85607Y81994D01*
X85658Y81948D01*
X85707Y81899D01*
X85753Y81848D01*
X85796Y81795D01*
X85836Y81739D01*
X85873Y81681D01*
X85907Y81621D01*
X85938Y81559D01*
X85965Y81496D01*
X85989Y81432D01*
X86009Y81366D01*
X86025Y81299D01*
X86038Y81231D01*
X86048Y81163D01*
X86053Y81095D01*
X86055Y81026D01*
X86055Y78994D01*
X86053Y78925D01*
X86048Y78857D01*
X86038Y78789D01*
X86025Y78721D01*
X86009Y78654D01*
X85989Y78588D01*
X85965Y78524D01*
X85938Y78461D01*
X85907Y78399D01*
X85873Y78339D01*
X85836Y78281D01*
X85796Y78225D01*
X85753Y78172D01*
X85707Y78121D01*
X85658Y78072D01*
X85607Y78026D01*
X85554Y77983D01*
X85498Y77943D01*
X85440Y77906D01*
X85380Y77872D01*
X85318Y77841D01*
X85255Y77814D01*
X85191Y77790D01*
X85125Y77770D01*
X85058Y77754D01*
X84990Y77741D01*
X84922Y77731D01*
X84854Y77726D01*
X84785Y77724D01*
X83515Y77724D01*
X87985Y77724D02*
X89509Y82296D01*
X91033Y77724D01*
X90652Y78867D02*
X88366Y78867D01*
X14143Y57404D02*
X13381Y57404D01*
X14143Y57404D02*
X14143Y54864D01*
X12619Y54864D01*
X12558Y54866D01*
X12497Y54871D01*
X12436Y54881D01*
X12376Y54894D01*
X12317Y54910D01*
X12259Y54930D01*
X12202Y54954D01*
X12147Y54980D01*
X12093Y55011D01*
X12042Y55044D01*
X11992Y55080D01*
X11945Y55120D01*
X11901Y55162D01*
X11859Y55206D01*
X11819Y55253D01*
X11783Y55303D01*
X11750Y55354D01*
X11719Y55408D01*
X11693Y55463D01*
X11669Y55520D01*
X11649Y55578D01*
X11633Y55637D01*
X11620Y55697D01*
X11610Y55758D01*
X11605Y55819D01*
X11603Y55880D01*
X11603Y58420D01*
X11605Y58481D01*
X11610Y58542D01*
X11620Y58603D01*
X11633Y58663D01*
X11649Y58722D01*
X11669Y58780D01*
X11693Y58837D01*
X11719Y58892D01*
X11750Y58946D01*
X11783Y58997D01*
X11819Y59047D01*
X11859Y59094D01*
X11901Y59138D01*
X11945Y59180D01*
X11992Y59220D01*
X12042Y59256D01*
X12093Y59289D01*
X12147Y59320D01*
X12202Y59346D01*
X12259Y59370D01*
X12317Y59390D01*
X12376Y59406D01*
X12436Y59419D01*
X12497Y59429D01*
X12558Y59434D01*
X12619Y59436D01*
X14143Y59436D01*
X16480Y59436D02*
X16480Y54864D01*
X19020Y54864D02*
X16480Y59436D01*
X19020Y59436D02*
X19020Y54864D01*
X21357Y54864D02*
X21357Y59436D01*
X22627Y59436D01*
X22696Y59434D01*
X22764Y59429D01*
X22832Y59419D01*
X22900Y59406D01*
X22967Y59390D01*
X23033Y59370D01*
X23097Y59346D01*
X23160Y59319D01*
X23222Y59288D01*
X23282Y59254D01*
X23340Y59217D01*
X23396Y59177D01*
X23449Y59134D01*
X23500Y59088D01*
X23549Y59039D01*
X23595Y58988D01*
X23638Y58935D01*
X23678Y58879D01*
X23715Y58821D01*
X23749Y58761D01*
X23780Y58699D01*
X23807Y58636D01*
X23831Y58572D01*
X23851Y58506D01*
X23867Y58439D01*
X23880Y58371D01*
X23890Y58303D01*
X23895Y58235D01*
X23897Y58166D01*
X23897Y56134D01*
X23895Y56065D01*
X23890Y55997D01*
X23880Y55929D01*
X23867Y55861D01*
X23851Y55794D01*
X23831Y55728D01*
X23807Y55664D01*
X23780Y55601D01*
X23749Y55539D01*
X23715Y55479D01*
X23678Y55421D01*
X23638Y55365D01*
X23595Y55312D01*
X23549Y55261D01*
X23500Y55212D01*
X23449Y55166D01*
X23396Y55123D01*
X23340Y55083D01*
X23282Y55046D01*
X23222Y55012D01*
X23160Y54981D01*
X23097Y54954D01*
X23033Y54930D01*
X22967Y54910D01*
X22900Y54894D01*
X22832Y54881D01*
X22764Y54871D01*
X22696Y54866D01*
X22627Y54864D01*
X21357Y54864D01*
X81097Y54864D02*
X81158Y54866D01*
X81219Y54871D01*
X81280Y54881D01*
X81340Y54894D01*
X81399Y54910D01*
X81457Y54930D01*
X81514Y54954D01*
X81569Y54980D01*
X81623Y55011D01*
X81674Y55044D01*
X81724Y55080D01*
X81771Y55120D01*
X81815Y55162D01*
X81857Y55206D01*
X81897Y55253D01*
X81933Y55303D01*
X81966Y55354D01*
X81997Y55408D01*
X82023Y55463D01*
X82047Y55520D01*
X82067Y55578D01*
X82083Y55637D01*
X82096Y55697D01*
X82106Y55758D01*
X82111Y55819D01*
X82113Y55880D01*
X81097Y54864D02*
X81008Y54866D01*
X80919Y54871D01*
X80830Y54881D01*
X80742Y54894D01*
X80654Y54910D01*
X80567Y54930D01*
X80482Y54954D01*
X80397Y54982D01*
X80313Y55012D01*
X80231Y55047D01*
X80150Y55084D01*
X80071Y55125D01*
X79993Y55170D01*
X79918Y55217D01*
X79844Y55268D01*
X79773Y55321D01*
X79704Y55378D01*
X79637Y55437D01*
X79573Y55499D01*
X79700Y58420D02*
X79702Y58481D01*
X79707Y58542D01*
X79717Y58603D01*
X79730Y58663D01*
X79746Y58722D01*
X79766Y58780D01*
X79790Y58837D01*
X79816Y58892D01*
X79847Y58946D01*
X79880Y58997D01*
X79916Y59047D01*
X79956Y59094D01*
X79998Y59138D01*
X80042Y59180D01*
X80089Y59220D01*
X80139Y59256D01*
X80190Y59289D01*
X80244Y59320D01*
X80299Y59346D01*
X80356Y59370D01*
X80414Y59390D01*
X80473Y59406D01*
X80533Y59419D01*
X80594Y59429D01*
X80655Y59434D01*
X80716Y59436D01*
X80798Y59434D01*
X80879Y59429D01*
X80960Y59420D01*
X81041Y59408D01*
X81121Y59392D01*
X81201Y59373D01*
X81280Y59351D01*
X81357Y59325D01*
X81433Y59296D01*
X81508Y59263D01*
X81582Y59228D01*
X81654Y59189D01*
X81724Y59147D01*
X81793Y59103D01*
X81859Y59055D01*
X80208Y57531D02*
X80155Y57565D01*
X80104Y57601D01*
X80055Y57641D01*
X80009Y57684D01*
X79965Y57730D01*
X79924Y57778D01*
X79887Y57828D01*
X79852Y57881D01*
X79821Y57936D01*
X79793Y57992D01*
X79769Y58050D01*
X79748Y58110D01*
X79731Y58170D01*
X79717Y58232D01*
X79708Y58294D01*
X79702Y58357D01*
X79700Y58420D01*
X81605Y56769D02*
X81658Y56735D01*
X81709Y56699D01*
X81758Y56659D01*
X81804Y56616D01*
X81848Y56570D01*
X81889Y56522D01*
X81926Y56472D01*
X81961Y56419D01*
X81992Y56364D01*
X82020Y56308D01*
X82044Y56250D01*
X82065Y56190D01*
X82082Y56130D01*
X82096Y56068D01*
X82105Y56006D01*
X82111Y55943D01*
X82113Y55880D01*
X81605Y56769D02*
X80208Y57531D01*
X84993Y54864D02*
X86009Y54864D01*
X84993Y54864D02*
X84932Y54866D01*
X84871Y54871D01*
X84810Y54881D01*
X84750Y54894D01*
X84691Y54910D01*
X84633Y54930D01*
X84576Y54954D01*
X84521Y54980D01*
X84467Y55011D01*
X84416Y55044D01*
X84366Y55080D01*
X84319Y55120D01*
X84275Y55162D01*
X84233Y55206D01*
X84193Y55253D01*
X84157Y55303D01*
X84124Y55354D01*
X84093Y55408D01*
X84067Y55463D01*
X84043Y55520D01*
X84023Y55578D01*
X84007Y55637D01*
X83994Y55697D01*
X83984Y55758D01*
X83979Y55819D01*
X83977Y55880D01*
X83977Y58420D01*
X83979Y58481D01*
X83984Y58542D01*
X83994Y58603D01*
X84007Y58663D01*
X84023Y58722D01*
X84043Y58780D01*
X84067Y58837D01*
X84093Y58892D01*
X84124Y58946D01*
X84157Y58997D01*
X84193Y59047D01*
X84233Y59094D01*
X84275Y59138D01*
X84319Y59180D01*
X84366Y59220D01*
X84416Y59256D01*
X84467Y59289D01*
X84521Y59320D01*
X84576Y59346D01*
X84633Y59370D01*
X84691Y59390D01*
X84750Y59406D01*
X84810Y59419D01*
X84871Y59429D01*
X84932Y59434D01*
X84993Y59436D01*
X86009Y59436D01*
X87965Y59436D02*
X87965Y54864D01*
X89997Y54864D01*
X6980Y6096D02*
X8504Y1524D01*
X10028Y6096D01*
X12807Y1524D02*
X13823Y1524D01*
X12807Y1524D02*
X12746Y1526D01*
X12685Y1531D01*
X12624Y1541D01*
X12564Y1554D01*
X12505Y1570D01*
X12447Y1590D01*
X12390Y1614D01*
X12335Y1640D01*
X12281Y1671D01*
X12230Y1704D01*
X12180Y1740D01*
X12133Y1780D01*
X12089Y1822D01*
X12047Y1866D01*
X12007Y1913D01*
X11971Y1963D01*
X11938Y2014D01*
X11907Y2068D01*
X11881Y2123D01*
X11857Y2180D01*
X11837Y2238D01*
X11821Y2297D01*
X11808Y2357D01*
X11798Y2418D01*
X11793Y2479D01*
X11791Y2540D01*
X11791Y5080D01*
X11793Y5141D01*
X11798Y5202D01*
X11808Y5263D01*
X11821Y5323D01*
X11837Y5382D01*
X11857Y5440D01*
X11881Y5497D01*
X11907Y5552D01*
X11938Y5606D01*
X11971Y5657D01*
X12007Y5707D01*
X12047Y5754D01*
X12089Y5798D01*
X12133Y5840D01*
X12180Y5880D01*
X12230Y5916D01*
X12281Y5949D01*
X12335Y5980D01*
X12390Y6006D01*
X12447Y6030D01*
X12505Y6050D01*
X12564Y6066D01*
X12624Y6079D01*
X12685Y6089D01*
X12746Y6094D01*
X12807Y6096D01*
X13823Y6096D01*
X16617Y1524D02*
X17633Y1524D01*
X16617Y1524D02*
X16556Y1526D01*
X16495Y1531D01*
X16434Y1541D01*
X16374Y1554D01*
X16315Y1570D01*
X16257Y1590D01*
X16200Y1614D01*
X16145Y1640D01*
X16091Y1671D01*
X16040Y1704D01*
X15990Y1740D01*
X15943Y1780D01*
X15899Y1822D01*
X15857Y1866D01*
X15817Y1913D01*
X15781Y1963D01*
X15748Y2014D01*
X15717Y2068D01*
X15691Y2123D01*
X15667Y2180D01*
X15647Y2238D01*
X15631Y2297D01*
X15618Y2357D01*
X15608Y2418D01*
X15603Y2479D01*
X15601Y2540D01*
X15601Y5080D01*
X15603Y5141D01*
X15608Y5202D01*
X15618Y5263D01*
X15631Y5323D01*
X15647Y5382D01*
X15667Y5440D01*
X15691Y5497D01*
X15717Y5552D01*
X15748Y5606D01*
X15781Y5657D01*
X15817Y5707D01*
X15857Y5754D01*
X15899Y5798D01*
X15943Y5840D01*
X15990Y5880D01*
X16040Y5916D01*
X16091Y5949D01*
X16145Y5980D01*
X16200Y6006D01*
X16257Y6030D01*
X16315Y6050D01*
X16374Y6066D01*
X16434Y6079D01*
X16495Y6089D01*
X16556Y6094D01*
X16617Y6096D01*
X17633Y6096D01*
X33548Y4064D02*
X34310Y4064D01*
X34310Y1524D01*
X32786Y1524D01*
X32725Y1526D01*
X32664Y1531D01*
X32603Y1541D01*
X32543Y1554D01*
X32484Y1570D01*
X32426Y1590D01*
X32369Y1614D01*
X32314Y1640D01*
X32260Y1671D01*
X32209Y1704D01*
X32159Y1740D01*
X32112Y1780D01*
X32068Y1822D01*
X32026Y1866D01*
X31986Y1913D01*
X31950Y1963D01*
X31917Y2014D01*
X31886Y2068D01*
X31860Y2123D01*
X31836Y2180D01*
X31816Y2238D01*
X31800Y2297D01*
X31787Y2357D01*
X31777Y2418D01*
X31772Y2479D01*
X31770Y2540D01*
X31770Y5080D01*
X31772Y5141D01*
X31777Y5202D01*
X31787Y5263D01*
X31800Y5323D01*
X31816Y5382D01*
X31836Y5440D01*
X31860Y5497D01*
X31886Y5552D01*
X31917Y5606D01*
X31950Y5657D01*
X31986Y5707D01*
X32026Y5754D01*
X32068Y5798D01*
X32112Y5840D01*
X32159Y5880D01*
X32209Y5916D01*
X32260Y5949D01*
X32314Y5980D01*
X32369Y6006D01*
X32426Y6030D01*
X32484Y6050D01*
X32543Y6066D01*
X32603Y6079D01*
X32664Y6089D01*
X32725Y6094D01*
X32786Y6096D01*
X34310Y6096D01*
X36647Y6096D02*
X36647Y1524D01*
X39187Y1524D02*
X36647Y6096D01*
X39187Y6096D02*
X39187Y1524D01*
X41524Y1524D02*
X41524Y6096D01*
X42794Y6096D01*
X42863Y6094D01*
X42931Y6089D01*
X42999Y6079D01*
X43067Y6066D01*
X43134Y6050D01*
X43200Y6030D01*
X43264Y6006D01*
X43327Y5979D01*
X43389Y5948D01*
X43449Y5914D01*
X43507Y5877D01*
X43563Y5837D01*
X43616Y5794D01*
X43667Y5748D01*
X43716Y5699D01*
X43762Y5648D01*
X43805Y5595D01*
X43845Y5539D01*
X43882Y5481D01*
X43916Y5421D01*
X43947Y5359D01*
X43974Y5296D01*
X43998Y5232D01*
X44018Y5166D01*
X44034Y5099D01*
X44047Y5031D01*
X44057Y4963D01*
X44062Y4895D01*
X44064Y4826D01*
X44064Y2794D01*
X44062Y2725D01*
X44057Y2657D01*
X44047Y2589D01*
X44034Y2521D01*
X44018Y2454D01*
X43998Y2388D01*
X43974Y2324D01*
X43947Y2261D01*
X43916Y2199D01*
X43882Y2139D01*
X43845Y2081D01*
X43805Y2025D01*
X43762Y1972D01*
X43716Y1921D01*
X43667Y1872D01*
X43616Y1826D01*
X43563Y1783D01*
X43507Y1743D01*
X43449Y1706D01*
X43389Y1672D01*
X43327Y1641D01*
X43264Y1614D01*
X43200Y1590D01*
X43134Y1570D01*
X43067Y1554D01*
X42999Y1541D01*
X42931Y1531D01*
X42863Y1526D01*
X42794Y1524D01*
X41524Y1524D01*
X59812Y1524D02*
X59873Y1526D01*
X59934Y1531D01*
X59995Y1541D01*
X60055Y1554D01*
X60114Y1570D01*
X60172Y1590D01*
X60229Y1614D01*
X60284Y1640D01*
X60338Y1671D01*
X60389Y1704D01*
X60439Y1740D01*
X60486Y1780D01*
X60530Y1822D01*
X60572Y1866D01*
X60612Y1913D01*
X60648Y1963D01*
X60681Y2014D01*
X60712Y2068D01*
X60738Y2123D01*
X60762Y2180D01*
X60782Y2238D01*
X60798Y2297D01*
X60811Y2357D01*
X60821Y2418D01*
X60826Y2479D01*
X60828Y2540D01*
X59812Y1524D02*
X59723Y1526D01*
X59634Y1531D01*
X59545Y1541D01*
X59457Y1554D01*
X59369Y1570D01*
X59282Y1590D01*
X59197Y1614D01*
X59112Y1642D01*
X59028Y1672D01*
X58946Y1707D01*
X58865Y1744D01*
X58786Y1785D01*
X58708Y1830D01*
X58633Y1877D01*
X58559Y1928D01*
X58488Y1981D01*
X58419Y2038D01*
X58352Y2097D01*
X58288Y2159D01*
X58415Y5080D02*
X58417Y5141D01*
X58422Y5202D01*
X58432Y5263D01*
X58445Y5323D01*
X58461Y5382D01*
X58481Y5440D01*
X58505Y5497D01*
X58531Y5552D01*
X58562Y5606D01*
X58595Y5657D01*
X58631Y5707D01*
X58671Y5754D01*
X58713Y5798D01*
X58757Y5840D01*
X58804Y5880D01*
X58854Y5916D01*
X58905Y5949D01*
X58959Y5980D01*
X59014Y6006D01*
X59071Y6030D01*
X59129Y6050D01*
X59188Y6066D01*
X59248Y6079D01*
X59309Y6089D01*
X59370Y6094D01*
X59431Y6096D01*
X59513Y6094D01*
X59594Y6089D01*
X59675Y6080D01*
X59756Y6068D01*
X59836Y6052D01*
X59916Y6033D01*
X59995Y6011D01*
X60072Y5985D01*
X60148Y5956D01*
X60223Y5923D01*
X60297Y5888D01*
X60369Y5849D01*
X60439Y5807D01*
X60508Y5763D01*
X60574Y5715D01*
X58923Y4191D02*
X58870Y4225D01*
X58819Y4261D01*
X58770Y4301D01*
X58724Y4344D01*
X58680Y4390D01*
X58639Y4438D01*
X58602Y4488D01*
X58567Y4541D01*
X58536Y4596D01*
X58508Y4652D01*
X58484Y4710D01*
X58463Y4770D01*
X58446Y4830D01*
X58432Y4892D01*
X58423Y4954D01*
X58417Y5017D01*
X58415Y5080D01*
X60320Y3429D02*
X60373Y3395D01*
X60424Y3359D01*
X60473Y3319D01*
X60519Y3276D01*
X60563Y3230D01*
X60604Y3182D01*
X60641Y3132D01*
X60676Y3079D01*
X60707Y3024D01*
X60735Y2968D01*
X60759Y2910D01*
X60780Y2850D01*
X60797Y2790D01*
X60811Y2728D01*
X60820Y2666D01*
X60826Y2603D01*
X60828Y2540D01*
X60320Y3429D02*
X58923Y4191D01*
X62860Y6096D02*
X62860Y1524D01*
X62860Y6096D02*
X64130Y6096D01*
X64199Y6094D01*
X64267Y6089D01*
X64335Y6079D01*
X64403Y6066D01*
X64470Y6050D01*
X64536Y6030D01*
X64600Y6006D01*
X64663Y5979D01*
X64725Y5948D01*
X64785Y5914D01*
X64843Y5877D01*
X64899Y5837D01*
X64952Y5794D01*
X65003Y5748D01*
X65052Y5699D01*
X65098Y5648D01*
X65141Y5595D01*
X65181Y5539D01*
X65218Y5481D01*
X65252Y5421D01*
X65283Y5359D01*
X65310Y5296D01*
X65334Y5232D01*
X65354Y5166D01*
X65370Y5099D01*
X65383Y5031D01*
X65393Y4963D01*
X65398Y4895D01*
X65400Y4826D01*
X65400Y2794D01*
X65398Y2725D01*
X65393Y2657D01*
X65383Y2589D01*
X65370Y2521D01*
X65354Y2454D01*
X65334Y2388D01*
X65310Y2324D01*
X65283Y2261D01*
X65252Y2199D01*
X65218Y2139D01*
X65181Y2081D01*
X65141Y2025D01*
X65098Y1972D01*
X65052Y1921D01*
X65003Y1872D01*
X64952Y1826D01*
X64899Y1783D01*
X64843Y1743D01*
X64785Y1706D01*
X64725Y1672D01*
X64663Y1641D01*
X64600Y1614D01*
X64536Y1590D01*
X64470Y1570D01*
X64403Y1554D01*
X64335Y1541D01*
X64267Y1531D01*
X64199Y1526D01*
X64130Y1524D01*
X62860Y1524D01*
X67330Y1524D02*
X68854Y6096D01*
X70378Y1524D01*
X69997Y2667D02*
X67711Y2667D01*
X85720Y1524D02*
X85781Y1526D01*
X85842Y1531D01*
X85903Y1541D01*
X85963Y1554D01*
X86022Y1570D01*
X86080Y1590D01*
X86137Y1614D01*
X86192Y1640D01*
X86246Y1671D01*
X86297Y1704D01*
X86347Y1740D01*
X86394Y1780D01*
X86438Y1822D01*
X86480Y1866D01*
X86520Y1913D01*
X86556Y1963D01*
X86589Y2014D01*
X86620Y2068D01*
X86646Y2123D01*
X86670Y2180D01*
X86690Y2238D01*
X86706Y2297D01*
X86719Y2357D01*
X86729Y2418D01*
X86734Y2479D01*
X86736Y2540D01*
X85720Y1524D02*
X85631Y1526D01*
X85542Y1531D01*
X85453Y1541D01*
X85365Y1554D01*
X85277Y1570D01*
X85190Y1590D01*
X85105Y1614D01*
X85020Y1642D01*
X84936Y1672D01*
X84854Y1707D01*
X84773Y1744D01*
X84694Y1785D01*
X84616Y1830D01*
X84541Y1877D01*
X84467Y1928D01*
X84396Y1981D01*
X84327Y2038D01*
X84260Y2097D01*
X84196Y2159D01*
X84323Y5080D02*
X84325Y5141D01*
X84330Y5202D01*
X84340Y5263D01*
X84353Y5323D01*
X84369Y5382D01*
X84389Y5440D01*
X84413Y5497D01*
X84439Y5552D01*
X84470Y5606D01*
X84503Y5657D01*
X84539Y5707D01*
X84579Y5754D01*
X84621Y5798D01*
X84665Y5840D01*
X84712Y5880D01*
X84762Y5916D01*
X84813Y5949D01*
X84867Y5980D01*
X84922Y6006D01*
X84979Y6030D01*
X85037Y6050D01*
X85096Y6066D01*
X85156Y6079D01*
X85217Y6089D01*
X85278Y6094D01*
X85339Y6096D01*
X85421Y6094D01*
X85502Y6089D01*
X85583Y6080D01*
X85664Y6068D01*
X85744Y6052D01*
X85824Y6033D01*
X85903Y6011D01*
X85980Y5985D01*
X86056Y5956D01*
X86131Y5923D01*
X86205Y5888D01*
X86277Y5849D01*
X86347Y5807D01*
X86416Y5763D01*
X86482Y5715D01*
X84830Y4191D02*
X84777Y4225D01*
X84726Y4261D01*
X84677Y4301D01*
X84631Y4344D01*
X84587Y4390D01*
X84546Y4438D01*
X84509Y4488D01*
X84474Y4541D01*
X84443Y4596D01*
X84415Y4652D01*
X84391Y4710D01*
X84370Y4770D01*
X84353Y4830D01*
X84339Y4892D01*
X84330Y4954D01*
X84324Y5017D01*
X84322Y5080D01*
X86228Y3429D02*
X86281Y3395D01*
X86332Y3359D01*
X86381Y3319D01*
X86427Y3276D01*
X86471Y3230D01*
X86512Y3182D01*
X86549Y3132D01*
X86584Y3079D01*
X86615Y3024D01*
X86643Y2968D01*
X86667Y2910D01*
X86688Y2850D01*
X86705Y2790D01*
X86719Y2728D01*
X86728Y2666D01*
X86734Y2603D01*
X86736Y2540D01*
X86228Y3429D02*
X84831Y4191D01*
X89616Y1524D02*
X90632Y1524D01*
X89616Y1524D02*
X89555Y1526D01*
X89494Y1531D01*
X89433Y1541D01*
X89373Y1554D01*
X89314Y1570D01*
X89256Y1590D01*
X89199Y1614D01*
X89144Y1640D01*
X89090Y1671D01*
X89039Y1704D01*
X88989Y1740D01*
X88942Y1780D01*
X88898Y1822D01*
X88856Y1866D01*
X88816Y1913D01*
X88780Y1963D01*
X88747Y2014D01*
X88716Y2068D01*
X88690Y2123D01*
X88666Y2180D01*
X88646Y2238D01*
X88630Y2297D01*
X88617Y2357D01*
X88607Y2418D01*
X88602Y2479D01*
X88600Y2540D01*
X88600Y5080D01*
X88602Y5141D01*
X88607Y5202D01*
X88617Y5263D01*
X88630Y5323D01*
X88646Y5382D01*
X88666Y5440D01*
X88690Y5497D01*
X88716Y5552D01*
X88747Y5606D01*
X88780Y5657D01*
X88816Y5707D01*
X88856Y5754D01*
X88898Y5798D01*
X88942Y5840D01*
X88989Y5880D01*
X89039Y5916D01*
X89090Y5949D01*
X89144Y5980D01*
X89199Y6006D01*
X89256Y6030D01*
X89314Y6050D01*
X89373Y6066D01*
X89433Y6079D01*
X89494Y6089D01*
X89555Y6094D01*
X89616Y6096D01*
X90632Y6096D01*
X92588Y6096D02*
X92588Y1524D01*
X94620Y1524D01*
D11*
X22860Y85090D02*
X22862Y85161D01*
X22868Y85232D01*
X22878Y85303D01*
X22892Y85373D01*
X22910Y85442D01*
X22931Y85509D01*
X22957Y85576D01*
X22986Y85641D01*
X23018Y85704D01*
X23055Y85766D01*
X23094Y85825D01*
X23137Y85882D01*
X23183Y85936D01*
X23232Y85988D01*
X23284Y86037D01*
X23338Y86083D01*
X23395Y86126D01*
X23454Y86165D01*
X23516Y86202D01*
X23579Y86234D01*
X23644Y86263D01*
X23711Y86289D01*
X23778Y86310D01*
X23847Y86328D01*
X23917Y86342D01*
X23988Y86352D01*
X24059Y86358D01*
X24130Y86360D01*
X24201Y86358D01*
X24272Y86352D01*
X24343Y86342D01*
X24413Y86328D01*
X24482Y86310D01*
X24549Y86289D01*
X24616Y86263D01*
X24681Y86234D01*
X24744Y86202D01*
X24806Y86165D01*
X24865Y86126D01*
X24922Y86083D01*
X24976Y86037D01*
X25028Y85988D01*
X25077Y85936D01*
X25123Y85882D01*
X25166Y85825D01*
X25205Y85766D01*
X25242Y85704D01*
X25274Y85641D01*
X25303Y85576D01*
X25329Y85509D01*
X25350Y85442D01*
X25368Y85373D01*
X25382Y85303D01*
X25392Y85232D01*
X25398Y85161D01*
X25400Y85090D01*
X25398Y85019D01*
X25392Y84948D01*
X25382Y84877D01*
X25368Y84807D01*
X25350Y84738D01*
X25329Y84671D01*
X25303Y84604D01*
X25274Y84539D01*
X25242Y84476D01*
X25205Y84414D01*
X25166Y84355D01*
X25123Y84298D01*
X25077Y84244D01*
X25028Y84192D01*
X24976Y84143D01*
X24922Y84097D01*
X24865Y84054D01*
X24806Y84015D01*
X24744Y83978D01*
X24681Y83946D01*
X24616Y83917D01*
X24549Y83891D01*
X24482Y83870D01*
X24413Y83852D01*
X24343Y83838D01*
X24272Y83828D01*
X24201Y83822D01*
X24130Y83820D01*
X24059Y83822D01*
X23988Y83828D01*
X23917Y83838D01*
X23847Y83852D01*
X23778Y83870D01*
X23711Y83891D01*
X23644Y83917D01*
X23579Y83946D01*
X23516Y83978D01*
X23454Y84015D01*
X23395Y84054D01*
X23338Y84097D01*
X23284Y84143D01*
X23232Y84192D01*
X23183Y84244D01*
X23137Y84298D01*
X23094Y84355D01*
X23055Y84414D01*
X23018Y84476D01*
X22986Y84539D01*
X22957Y84604D01*
X22931Y84671D01*
X22910Y84738D01*
X22892Y84807D01*
X22878Y84877D01*
X22868Y84948D01*
X22862Y85019D01*
X22860Y85090D01*
M02*
