G04 EAGLE Gerber X2 export*
G75*
%MOMM*%
%FSLAX34Y34*%
%LPD*%
%AMOC8*
5,1,8,0,0,1.08239X$1,22.5*%
G01*
%ADD10C,0.050800*%
%ADD11C,0.406400*%
%ADD12C,2.082800*%


D10*
X8967Y9906D02*
X9729Y9906D01*
X9729Y12446D01*
X8205Y12446D01*
X8144Y12444D01*
X8083Y12439D01*
X8022Y12429D01*
X7962Y12416D01*
X7903Y12400D01*
X7845Y12380D01*
X7788Y12356D01*
X7733Y12330D01*
X7679Y12299D01*
X7628Y12266D01*
X7578Y12230D01*
X7531Y12190D01*
X7487Y12148D01*
X7445Y12104D01*
X7405Y12057D01*
X7369Y12007D01*
X7336Y11956D01*
X7305Y11902D01*
X7279Y11847D01*
X7255Y11790D01*
X7235Y11732D01*
X7219Y11673D01*
X7206Y11613D01*
X7196Y11552D01*
X7191Y11491D01*
X7189Y11430D01*
X7189Y8890D01*
X7191Y8829D01*
X7196Y8768D01*
X7206Y8707D01*
X7219Y8647D01*
X7235Y8588D01*
X7255Y8530D01*
X7279Y8473D01*
X7305Y8418D01*
X7336Y8364D01*
X7369Y8313D01*
X7405Y8263D01*
X7445Y8216D01*
X7487Y8172D01*
X7531Y8130D01*
X7578Y8090D01*
X7628Y8054D01*
X7679Y8021D01*
X7733Y7990D01*
X7788Y7964D01*
X7845Y7940D01*
X7903Y7920D01*
X7962Y7904D01*
X8022Y7891D01*
X8083Y7881D01*
X8144Y7876D01*
X8205Y7874D01*
X9729Y7874D01*
X12065Y7874D02*
X12065Y12446D01*
X14605Y12446D02*
X12065Y7874D01*
X14605Y7874D02*
X14605Y12446D01*
X16942Y12446D02*
X16942Y7874D01*
X18212Y7874D01*
X18281Y7876D01*
X18349Y7881D01*
X18417Y7891D01*
X18485Y7904D01*
X18552Y7920D01*
X18618Y7940D01*
X18682Y7964D01*
X18745Y7991D01*
X18807Y8022D01*
X18867Y8056D01*
X18925Y8093D01*
X18981Y8133D01*
X19034Y8176D01*
X19085Y8222D01*
X19134Y8271D01*
X19180Y8322D01*
X19223Y8375D01*
X19263Y8431D01*
X19300Y8489D01*
X19334Y8549D01*
X19365Y8611D01*
X19392Y8674D01*
X19416Y8738D01*
X19436Y8804D01*
X19452Y8871D01*
X19465Y8939D01*
X19475Y9007D01*
X19480Y9075D01*
X19482Y9144D01*
X19482Y11176D01*
X19480Y11245D01*
X19475Y11313D01*
X19465Y11381D01*
X19452Y11449D01*
X19436Y11516D01*
X19416Y11582D01*
X19392Y11646D01*
X19365Y11709D01*
X19334Y11771D01*
X19300Y11831D01*
X19263Y11889D01*
X19223Y11945D01*
X19180Y11998D01*
X19134Y12049D01*
X19085Y12098D01*
X19034Y12144D01*
X18981Y12187D01*
X18925Y12227D01*
X18867Y12264D01*
X18807Y12298D01*
X18745Y12329D01*
X18682Y12356D01*
X18618Y12380D01*
X18552Y12400D01*
X18485Y12416D01*
X18417Y12429D01*
X18349Y12439D01*
X18281Y12444D01*
X18212Y12446D01*
X16942Y12446D01*
X33604Y7874D02*
X35128Y12446D01*
X36652Y7874D01*
X39431Y12446D02*
X40447Y12446D01*
X39431Y12446D02*
X39370Y12444D01*
X39309Y12439D01*
X39248Y12429D01*
X39188Y12416D01*
X39129Y12400D01*
X39071Y12380D01*
X39014Y12356D01*
X38959Y12330D01*
X38905Y12299D01*
X38854Y12266D01*
X38804Y12230D01*
X38757Y12190D01*
X38713Y12148D01*
X38671Y12104D01*
X38631Y12057D01*
X38595Y12007D01*
X38562Y11956D01*
X38531Y11902D01*
X38505Y11847D01*
X38481Y11790D01*
X38461Y11732D01*
X38445Y11673D01*
X38432Y11613D01*
X38422Y11552D01*
X38417Y11491D01*
X38415Y11430D01*
X38415Y8890D01*
X38417Y8829D01*
X38422Y8768D01*
X38432Y8707D01*
X38445Y8647D01*
X38461Y8588D01*
X38481Y8530D01*
X38505Y8473D01*
X38531Y8418D01*
X38562Y8364D01*
X38595Y8313D01*
X38631Y8263D01*
X38671Y8216D01*
X38713Y8172D01*
X38757Y8130D01*
X38804Y8090D01*
X38854Y8054D01*
X38905Y8021D01*
X38959Y7990D01*
X39014Y7964D01*
X39071Y7940D01*
X39129Y7920D01*
X39188Y7904D01*
X39248Y7891D01*
X39309Y7881D01*
X39370Y7876D01*
X39431Y7874D01*
X40447Y7874D01*
X43241Y12446D02*
X44257Y12446D01*
X43241Y12446D02*
X43180Y12444D01*
X43119Y12439D01*
X43058Y12429D01*
X42998Y12416D01*
X42939Y12400D01*
X42881Y12380D01*
X42824Y12356D01*
X42769Y12330D01*
X42715Y12299D01*
X42664Y12266D01*
X42614Y12230D01*
X42567Y12190D01*
X42523Y12148D01*
X42481Y12104D01*
X42441Y12057D01*
X42405Y12007D01*
X42372Y11956D01*
X42341Y11902D01*
X42315Y11847D01*
X42291Y11790D01*
X42271Y11732D01*
X42255Y11673D01*
X42242Y11613D01*
X42232Y11552D01*
X42227Y11491D01*
X42225Y11430D01*
X42225Y8890D01*
X42227Y8829D01*
X42232Y8768D01*
X42242Y8707D01*
X42255Y8647D01*
X42271Y8588D01*
X42291Y8530D01*
X42315Y8473D01*
X42341Y8418D01*
X42372Y8364D01*
X42405Y8313D01*
X42441Y8263D01*
X42481Y8216D01*
X42523Y8172D01*
X42567Y8130D01*
X42614Y8090D01*
X42664Y8054D01*
X42715Y8021D01*
X42769Y7990D01*
X42824Y7964D01*
X42881Y7940D01*
X42939Y7920D01*
X42998Y7904D01*
X43058Y7891D01*
X43119Y7881D01*
X43180Y7876D01*
X43241Y7874D01*
X44257Y7874D01*
X59614Y12446D02*
X59675Y12444D01*
X59736Y12439D01*
X59797Y12429D01*
X59857Y12416D01*
X59916Y12400D01*
X59974Y12380D01*
X60031Y12356D01*
X60086Y12330D01*
X60140Y12299D01*
X60191Y12266D01*
X60241Y12230D01*
X60288Y12190D01*
X60332Y12148D01*
X60374Y12104D01*
X60414Y12057D01*
X60450Y12007D01*
X60483Y11956D01*
X60514Y11902D01*
X60540Y11847D01*
X60564Y11790D01*
X60584Y11732D01*
X60600Y11673D01*
X60613Y11613D01*
X60623Y11552D01*
X60628Y11491D01*
X60630Y11430D01*
X59614Y12446D02*
X59525Y12444D01*
X59436Y12439D01*
X59347Y12429D01*
X59259Y12416D01*
X59171Y12400D01*
X59084Y12380D01*
X58999Y12356D01*
X58914Y12328D01*
X58830Y12298D01*
X58748Y12263D01*
X58667Y12226D01*
X58588Y12185D01*
X58510Y12140D01*
X58435Y12093D01*
X58361Y12042D01*
X58290Y11989D01*
X58221Y11932D01*
X58154Y11873D01*
X58090Y11811D01*
X58217Y8890D02*
X58219Y8829D01*
X58224Y8768D01*
X58234Y8707D01*
X58247Y8647D01*
X58263Y8588D01*
X58283Y8530D01*
X58307Y8473D01*
X58333Y8418D01*
X58364Y8364D01*
X58397Y8313D01*
X58433Y8263D01*
X58473Y8216D01*
X58515Y8172D01*
X58559Y8130D01*
X58606Y8090D01*
X58656Y8054D01*
X58707Y8021D01*
X58761Y7990D01*
X58816Y7964D01*
X58873Y7940D01*
X58931Y7920D01*
X58990Y7904D01*
X59050Y7891D01*
X59111Y7881D01*
X59172Y7876D01*
X59233Y7874D01*
X59315Y7876D01*
X59396Y7881D01*
X59477Y7890D01*
X59558Y7902D01*
X59638Y7918D01*
X59718Y7937D01*
X59797Y7959D01*
X59874Y7985D01*
X59950Y8014D01*
X60025Y8047D01*
X60099Y8082D01*
X60171Y8121D01*
X60241Y8163D01*
X60310Y8207D01*
X60376Y8255D01*
X58725Y9779D02*
X58672Y9745D01*
X58621Y9709D01*
X58572Y9669D01*
X58526Y9626D01*
X58482Y9580D01*
X58441Y9532D01*
X58404Y9482D01*
X58369Y9429D01*
X58338Y9374D01*
X58310Y9318D01*
X58286Y9260D01*
X58265Y9200D01*
X58248Y9140D01*
X58234Y9078D01*
X58225Y9016D01*
X58219Y8953D01*
X58217Y8890D01*
X60122Y10541D02*
X60175Y10575D01*
X60226Y10611D01*
X60275Y10651D01*
X60321Y10694D01*
X60365Y10740D01*
X60406Y10788D01*
X60443Y10838D01*
X60478Y10891D01*
X60509Y10946D01*
X60537Y11002D01*
X60561Y11060D01*
X60582Y11120D01*
X60599Y11180D01*
X60613Y11242D01*
X60622Y11304D01*
X60628Y11367D01*
X60630Y11430D01*
X60122Y10541D02*
X58725Y9779D01*
X63510Y12446D02*
X64526Y12446D01*
X63510Y12446D02*
X63449Y12444D01*
X63388Y12439D01*
X63327Y12429D01*
X63267Y12416D01*
X63208Y12400D01*
X63150Y12380D01*
X63093Y12356D01*
X63038Y12330D01*
X62984Y12299D01*
X62933Y12266D01*
X62883Y12230D01*
X62836Y12190D01*
X62792Y12148D01*
X62750Y12104D01*
X62710Y12057D01*
X62674Y12007D01*
X62641Y11956D01*
X62610Y11902D01*
X62584Y11847D01*
X62560Y11790D01*
X62540Y11732D01*
X62524Y11673D01*
X62511Y11613D01*
X62501Y11552D01*
X62496Y11491D01*
X62494Y11430D01*
X62494Y8890D01*
X62496Y8829D01*
X62501Y8768D01*
X62511Y8707D01*
X62524Y8647D01*
X62540Y8588D01*
X62560Y8530D01*
X62584Y8473D01*
X62610Y8418D01*
X62641Y8364D01*
X62674Y8313D01*
X62710Y8263D01*
X62750Y8216D01*
X62792Y8172D01*
X62836Y8130D01*
X62883Y8090D01*
X62933Y8054D01*
X62984Y8021D01*
X63038Y7990D01*
X63093Y7964D01*
X63150Y7940D01*
X63208Y7920D01*
X63267Y7904D01*
X63327Y7891D01*
X63388Y7881D01*
X63449Y7876D01*
X63510Y7874D01*
X64526Y7874D01*
X66482Y7874D02*
X66482Y12446D01*
X68514Y12446D01*
X83845Y12446D02*
X83906Y12444D01*
X83967Y12439D01*
X84028Y12429D01*
X84088Y12416D01*
X84147Y12400D01*
X84205Y12380D01*
X84262Y12356D01*
X84317Y12330D01*
X84371Y12299D01*
X84422Y12266D01*
X84472Y12230D01*
X84519Y12190D01*
X84563Y12148D01*
X84605Y12104D01*
X84645Y12057D01*
X84681Y12007D01*
X84714Y11956D01*
X84745Y11902D01*
X84771Y11847D01*
X84795Y11790D01*
X84815Y11732D01*
X84831Y11673D01*
X84844Y11613D01*
X84854Y11552D01*
X84859Y11491D01*
X84861Y11430D01*
X83845Y12446D02*
X83756Y12444D01*
X83667Y12439D01*
X83578Y12429D01*
X83490Y12416D01*
X83402Y12400D01*
X83315Y12380D01*
X83230Y12356D01*
X83145Y12328D01*
X83061Y12298D01*
X82979Y12263D01*
X82898Y12226D01*
X82819Y12185D01*
X82741Y12140D01*
X82666Y12093D01*
X82592Y12042D01*
X82521Y11989D01*
X82452Y11932D01*
X82385Y11873D01*
X82321Y11811D01*
X82448Y8890D02*
X82450Y8829D01*
X82455Y8768D01*
X82465Y8707D01*
X82478Y8647D01*
X82494Y8588D01*
X82514Y8530D01*
X82538Y8473D01*
X82564Y8418D01*
X82595Y8364D01*
X82628Y8313D01*
X82664Y8263D01*
X82704Y8216D01*
X82746Y8172D01*
X82790Y8130D01*
X82837Y8090D01*
X82887Y8054D01*
X82938Y8021D01*
X82992Y7990D01*
X83047Y7964D01*
X83104Y7940D01*
X83162Y7920D01*
X83221Y7904D01*
X83281Y7891D01*
X83342Y7881D01*
X83403Y7876D01*
X83464Y7874D01*
X83546Y7876D01*
X83627Y7881D01*
X83708Y7890D01*
X83789Y7902D01*
X83869Y7918D01*
X83949Y7937D01*
X84028Y7959D01*
X84105Y7985D01*
X84181Y8014D01*
X84256Y8047D01*
X84330Y8082D01*
X84402Y8121D01*
X84472Y8163D01*
X84541Y8207D01*
X84607Y8255D01*
X82956Y9779D02*
X82903Y9745D01*
X82852Y9709D01*
X82803Y9669D01*
X82757Y9626D01*
X82713Y9580D01*
X82672Y9532D01*
X82635Y9482D01*
X82600Y9429D01*
X82569Y9374D01*
X82541Y9318D01*
X82517Y9260D01*
X82496Y9200D01*
X82479Y9140D01*
X82465Y9078D01*
X82456Y9016D01*
X82450Y8953D01*
X82448Y8890D01*
X84353Y10541D02*
X84406Y10575D01*
X84457Y10611D01*
X84506Y10651D01*
X84552Y10694D01*
X84596Y10740D01*
X84637Y10788D01*
X84674Y10838D01*
X84709Y10891D01*
X84740Y10946D01*
X84768Y11002D01*
X84792Y11060D01*
X84813Y11120D01*
X84830Y11180D01*
X84844Y11242D01*
X84853Y11304D01*
X84859Y11367D01*
X84861Y11430D01*
X84353Y10541D02*
X82956Y9779D01*
X86893Y7874D02*
X86893Y12446D01*
X86893Y7874D02*
X88163Y7874D01*
X88232Y7876D01*
X88300Y7881D01*
X88368Y7891D01*
X88436Y7904D01*
X88503Y7920D01*
X88569Y7940D01*
X88633Y7964D01*
X88696Y7991D01*
X88758Y8022D01*
X88818Y8056D01*
X88876Y8093D01*
X88932Y8133D01*
X88985Y8176D01*
X89036Y8222D01*
X89085Y8271D01*
X89131Y8322D01*
X89174Y8375D01*
X89214Y8431D01*
X89251Y8489D01*
X89285Y8549D01*
X89316Y8611D01*
X89343Y8674D01*
X89367Y8738D01*
X89387Y8804D01*
X89403Y8871D01*
X89416Y8939D01*
X89426Y9007D01*
X89431Y9075D01*
X89433Y9144D01*
X89433Y11176D01*
X89431Y11245D01*
X89426Y11313D01*
X89416Y11381D01*
X89403Y11449D01*
X89387Y11516D01*
X89367Y11582D01*
X89343Y11646D01*
X89316Y11709D01*
X89285Y11771D01*
X89251Y11831D01*
X89214Y11889D01*
X89174Y11945D01*
X89131Y11998D01*
X89085Y12049D01*
X89036Y12098D01*
X88985Y12144D01*
X88932Y12187D01*
X88876Y12227D01*
X88818Y12264D01*
X88758Y12298D01*
X88696Y12329D01*
X88633Y12356D01*
X88569Y12380D01*
X88503Y12400D01*
X88436Y12416D01*
X88368Y12429D01*
X88300Y12439D01*
X88232Y12444D01*
X88163Y12446D01*
X86893Y12446D01*
X91363Y12446D02*
X92887Y7874D01*
X94411Y12446D01*
X94030Y11303D02*
X91744Y11303D01*
X10567Y44704D02*
X12091Y49276D01*
X13615Y44704D01*
X16394Y49276D02*
X17410Y49276D01*
X16394Y49276D02*
X16333Y49274D01*
X16272Y49269D01*
X16211Y49259D01*
X16151Y49246D01*
X16092Y49230D01*
X16034Y49210D01*
X15977Y49186D01*
X15922Y49160D01*
X15868Y49129D01*
X15817Y49096D01*
X15767Y49060D01*
X15720Y49020D01*
X15676Y48978D01*
X15634Y48934D01*
X15594Y48887D01*
X15558Y48837D01*
X15525Y48786D01*
X15494Y48732D01*
X15468Y48677D01*
X15444Y48620D01*
X15424Y48562D01*
X15408Y48503D01*
X15395Y48443D01*
X15385Y48382D01*
X15380Y48321D01*
X15378Y48260D01*
X15378Y45720D01*
X15380Y45659D01*
X15385Y45598D01*
X15395Y45537D01*
X15408Y45477D01*
X15424Y45418D01*
X15444Y45360D01*
X15468Y45303D01*
X15494Y45248D01*
X15525Y45194D01*
X15558Y45143D01*
X15594Y45093D01*
X15634Y45046D01*
X15676Y45002D01*
X15720Y44960D01*
X15767Y44920D01*
X15817Y44884D01*
X15868Y44851D01*
X15922Y44820D01*
X15977Y44794D01*
X16034Y44770D01*
X16092Y44750D01*
X16151Y44734D01*
X16211Y44721D01*
X16272Y44711D01*
X16333Y44706D01*
X16394Y44704D01*
X17410Y44704D01*
X20204Y49276D02*
X21220Y49276D01*
X20204Y49276D02*
X20143Y49274D01*
X20082Y49269D01*
X20021Y49259D01*
X19961Y49246D01*
X19902Y49230D01*
X19844Y49210D01*
X19787Y49186D01*
X19732Y49160D01*
X19678Y49129D01*
X19627Y49096D01*
X19577Y49060D01*
X19530Y49020D01*
X19486Y48978D01*
X19444Y48934D01*
X19404Y48887D01*
X19368Y48837D01*
X19335Y48786D01*
X19304Y48732D01*
X19278Y48677D01*
X19254Y48620D01*
X19234Y48562D01*
X19218Y48503D01*
X19205Y48443D01*
X19195Y48382D01*
X19190Y48321D01*
X19188Y48260D01*
X19188Y45720D01*
X19190Y45659D01*
X19195Y45598D01*
X19205Y45537D01*
X19218Y45477D01*
X19234Y45418D01*
X19254Y45360D01*
X19278Y45303D01*
X19304Y45248D01*
X19335Y45194D01*
X19368Y45143D01*
X19404Y45093D01*
X19444Y45046D01*
X19486Y45002D01*
X19530Y44960D01*
X19577Y44920D01*
X19627Y44884D01*
X19678Y44851D01*
X19732Y44820D01*
X19787Y44794D01*
X19844Y44770D01*
X19902Y44750D01*
X19961Y44734D01*
X20021Y44721D01*
X20082Y44711D01*
X20143Y44706D01*
X20204Y44704D01*
X21220Y44704D01*
X80467Y49276D02*
X80528Y49274D01*
X80589Y49269D01*
X80650Y49259D01*
X80710Y49246D01*
X80769Y49230D01*
X80827Y49210D01*
X80884Y49186D01*
X80939Y49160D01*
X80993Y49129D01*
X81044Y49096D01*
X81094Y49060D01*
X81141Y49020D01*
X81185Y48978D01*
X81227Y48934D01*
X81267Y48887D01*
X81303Y48837D01*
X81336Y48786D01*
X81367Y48732D01*
X81393Y48677D01*
X81417Y48620D01*
X81437Y48562D01*
X81453Y48503D01*
X81466Y48443D01*
X81476Y48382D01*
X81481Y48321D01*
X81483Y48260D01*
X80467Y49276D02*
X80378Y49274D01*
X80289Y49269D01*
X80200Y49259D01*
X80112Y49246D01*
X80024Y49230D01*
X79937Y49210D01*
X79852Y49186D01*
X79767Y49158D01*
X79683Y49128D01*
X79601Y49093D01*
X79520Y49056D01*
X79441Y49015D01*
X79363Y48970D01*
X79288Y48923D01*
X79214Y48872D01*
X79143Y48819D01*
X79074Y48762D01*
X79007Y48703D01*
X78943Y48641D01*
X79070Y45720D02*
X79072Y45659D01*
X79077Y45598D01*
X79087Y45537D01*
X79100Y45477D01*
X79116Y45418D01*
X79136Y45360D01*
X79160Y45303D01*
X79186Y45248D01*
X79217Y45194D01*
X79250Y45143D01*
X79286Y45093D01*
X79326Y45046D01*
X79368Y45002D01*
X79412Y44960D01*
X79459Y44920D01*
X79509Y44884D01*
X79560Y44851D01*
X79614Y44820D01*
X79669Y44794D01*
X79726Y44770D01*
X79784Y44750D01*
X79843Y44734D01*
X79903Y44721D01*
X79964Y44711D01*
X80025Y44706D01*
X80086Y44704D01*
X80168Y44706D01*
X80249Y44711D01*
X80330Y44720D01*
X80411Y44732D01*
X80491Y44748D01*
X80571Y44767D01*
X80650Y44789D01*
X80727Y44815D01*
X80803Y44844D01*
X80878Y44877D01*
X80952Y44912D01*
X81024Y44951D01*
X81094Y44993D01*
X81163Y45037D01*
X81229Y45085D01*
X79578Y46609D02*
X79525Y46575D01*
X79474Y46539D01*
X79425Y46499D01*
X79379Y46456D01*
X79335Y46410D01*
X79294Y46362D01*
X79257Y46312D01*
X79222Y46259D01*
X79191Y46204D01*
X79163Y46148D01*
X79139Y46090D01*
X79118Y46030D01*
X79101Y45970D01*
X79087Y45908D01*
X79078Y45846D01*
X79072Y45783D01*
X79070Y45720D01*
X80975Y47371D02*
X81028Y47405D01*
X81079Y47441D01*
X81128Y47481D01*
X81174Y47524D01*
X81218Y47570D01*
X81259Y47618D01*
X81296Y47668D01*
X81331Y47721D01*
X81362Y47776D01*
X81390Y47832D01*
X81414Y47890D01*
X81435Y47950D01*
X81452Y48010D01*
X81466Y48072D01*
X81475Y48134D01*
X81481Y48197D01*
X81483Y48260D01*
X80975Y47371D02*
X79578Y46609D01*
X83515Y44704D02*
X83515Y49276D01*
X83515Y44704D02*
X84785Y44704D01*
X84854Y44706D01*
X84922Y44711D01*
X84990Y44721D01*
X85058Y44734D01*
X85125Y44750D01*
X85191Y44770D01*
X85255Y44794D01*
X85318Y44821D01*
X85380Y44852D01*
X85440Y44886D01*
X85498Y44923D01*
X85554Y44963D01*
X85607Y45006D01*
X85658Y45052D01*
X85707Y45101D01*
X85753Y45152D01*
X85796Y45205D01*
X85836Y45261D01*
X85873Y45319D01*
X85907Y45379D01*
X85938Y45441D01*
X85965Y45504D01*
X85989Y45568D01*
X86009Y45634D01*
X86025Y45701D01*
X86038Y45769D01*
X86048Y45837D01*
X86053Y45905D01*
X86055Y45974D01*
X86055Y48006D01*
X86053Y48075D01*
X86048Y48143D01*
X86038Y48211D01*
X86025Y48279D01*
X86009Y48346D01*
X85989Y48412D01*
X85965Y48476D01*
X85938Y48539D01*
X85907Y48601D01*
X85873Y48661D01*
X85836Y48719D01*
X85796Y48775D01*
X85753Y48828D01*
X85707Y48879D01*
X85658Y48928D01*
X85607Y48974D01*
X85554Y49017D01*
X85498Y49057D01*
X85440Y49094D01*
X85380Y49128D01*
X85318Y49159D01*
X85255Y49186D01*
X85191Y49210D01*
X85125Y49230D01*
X85058Y49246D01*
X84990Y49259D01*
X84922Y49269D01*
X84854Y49274D01*
X84785Y49276D01*
X83515Y49276D01*
X87985Y49276D02*
X89509Y44704D01*
X91033Y49276D01*
X90652Y48133D02*
X88366Y48133D01*
X14143Y69596D02*
X13381Y69596D01*
X14143Y69596D02*
X14143Y72136D01*
X12619Y72136D01*
X12558Y72134D01*
X12497Y72129D01*
X12436Y72119D01*
X12376Y72106D01*
X12317Y72090D01*
X12259Y72070D01*
X12202Y72046D01*
X12147Y72020D01*
X12093Y71989D01*
X12042Y71956D01*
X11992Y71920D01*
X11945Y71880D01*
X11901Y71838D01*
X11859Y71794D01*
X11819Y71747D01*
X11783Y71697D01*
X11750Y71646D01*
X11719Y71592D01*
X11693Y71537D01*
X11669Y71480D01*
X11649Y71422D01*
X11633Y71363D01*
X11620Y71303D01*
X11610Y71242D01*
X11605Y71181D01*
X11603Y71120D01*
X11603Y68580D01*
X11605Y68519D01*
X11610Y68458D01*
X11620Y68397D01*
X11633Y68337D01*
X11649Y68278D01*
X11669Y68220D01*
X11693Y68163D01*
X11719Y68108D01*
X11750Y68054D01*
X11783Y68003D01*
X11819Y67953D01*
X11859Y67906D01*
X11901Y67862D01*
X11945Y67820D01*
X11992Y67780D01*
X12042Y67744D01*
X12093Y67711D01*
X12147Y67680D01*
X12202Y67654D01*
X12259Y67630D01*
X12317Y67610D01*
X12376Y67594D01*
X12436Y67581D01*
X12497Y67571D01*
X12558Y67566D01*
X12619Y67564D01*
X14143Y67564D01*
X16480Y67564D02*
X16480Y72136D01*
X19020Y72136D02*
X16480Y67564D01*
X19020Y67564D02*
X19020Y72136D01*
X21357Y72136D02*
X21357Y67564D01*
X22627Y67564D01*
X22696Y67566D01*
X22764Y67571D01*
X22832Y67581D01*
X22900Y67594D01*
X22967Y67610D01*
X23033Y67630D01*
X23097Y67654D01*
X23160Y67681D01*
X23222Y67712D01*
X23282Y67746D01*
X23340Y67783D01*
X23396Y67823D01*
X23449Y67866D01*
X23500Y67912D01*
X23549Y67961D01*
X23595Y68012D01*
X23638Y68065D01*
X23678Y68121D01*
X23715Y68179D01*
X23749Y68239D01*
X23780Y68301D01*
X23807Y68364D01*
X23831Y68428D01*
X23851Y68494D01*
X23867Y68561D01*
X23880Y68629D01*
X23890Y68697D01*
X23895Y68765D01*
X23897Y68834D01*
X23897Y70866D01*
X23895Y70935D01*
X23890Y71003D01*
X23880Y71071D01*
X23867Y71139D01*
X23851Y71206D01*
X23831Y71272D01*
X23807Y71336D01*
X23780Y71399D01*
X23749Y71461D01*
X23715Y71521D01*
X23678Y71579D01*
X23638Y71635D01*
X23595Y71688D01*
X23549Y71739D01*
X23500Y71788D01*
X23449Y71834D01*
X23396Y71877D01*
X23340Y71917D01*
X23282Y71954D01*
X23222Y71988D01*
X23160Y72019D01*
X23097Y72046D01*
X23033Y72070D01*
X22967Y72090D01*
X22900Y72106D01*
X22832Y72119D01*
X22764Y72129D01*
X22696Y72134D01*
X22627Y72136D01*
X21357Y72136D01*
X81097Y72136D02*
X81158Y72134D01*
X81219Y72129D01*
X81280Y72119D01*
X81340Y72106D01*
X81399Y72090D01*
X81457Y72070D01*
X81514Y72046D01*
X81569Y72020D01*
X81623Y71989D01*
X81674Y71956D01*
X81724Y71920D01*
X81771Y71880D01*
X81815Y71838D01*
X81857Y71794D01*
X81897Y71747D01*
X81933Y71697D01*
X81966Y71646D01*
X81997Y71592D01*
X82023Y71537D01*
X82047Y71480D01*
X82067Y71422D01*
X82083Y71363D01*
X82096Y71303D01*
X82106Y71242D01*
X82111Y71181D01*
X82113Y71120D01*
X81097Y72136D02*
X81008Y72134D01*
X80919Y72129D01*
X80830Y72119D01*
X80742Y72106D01*
X80654Y72090D01*
X80567Y72070D01*
X80482Y72046D01*
X80397Y72018D01*
X80313Y71988D01*
X80231Y71953D01*
X80150Y71916D01*
X80071Y71875D01*
X79993Y71830D01*
X79918Y71783D01*
X79844Y71732D01*
X79773Y71679D01*
X79704Y71622D01*
X79637Y71563D01*
X79573Y71501D01*
X79700Y68580D02*
X79702Y68519D01*
X79707Y68458D01*
X79717Y68397D01*
X79730Y68337D01*
X79746Y68278D01*
X79766Y68220D01*
X79790Y68163D01*
X79816Y68108D01*
X79847Y68054D01*
X79880Y68003D01*
X79916Y67953D01*
X79956Y67906D01*
X79998Y67862D01*
X80042Y67820D01*
X80089Y67780D01*
X80139Y67744D01*
X80190Y67711D01*
X80244Y67680D01*
X80299Y67654D01*
X80356Y67630D01*
X80414Y67610D01*
X80473Y67594D01*
X80533Y67581D01*
X80594Y67571D01*
X80655Y67566D01*
X80716Y67564D01*
X80798Y67566D01*
X80879Y67571D01*
X80960Y67580D01*
X81041Y67592D01*
X81121Y67608D01*
X81201Y67627D01*
X81280Y67649D01*
X81357Y67675D01*
X81433Y67704D01*
X81508Y67737D01*
X81582Y67772D01*
X81654Y67811D01*
X81724Y67853D01*
X81793Y67897D01*
X81859Y67945D01*
X80208Y69469D02*
X80155Y69435D01*
X80104Y69399D01*
X80055Y69359D01*
X80009Y69316D01*
X79965Y69270D01*
X79924Y69222D01*
X79887Y69172D01*
X79852Y69119D01*
X79821Y69064D01*
X79793Y69008D01*
X79769Y68950D01*
X79748Y68890D01*
X79731Y68830D01*
X79717Y68768D01*
X79708Y68706D01*
X79702Y68643D01*
X79700Y68580D01*
X81605Y70231D02*
X81658Y70265D01*
X81709Y70301D01*
X81758Y70341D01*
X81804Y70384D01*
X81848Y70430D01*
X81889Y70478D01*
X81926Y70528D01*
X81961Y70581D01*
X81992Y70636D01*
X82020Y70692D01*
X82044Y70750D01*
X82065Y70810D01*
X82082Y70870D01*
X82096Y70932D01*
X82105Y70994D01*
X82111Y71057D01*
X82113Y71120D01*
X81605Y70231D02*
X80208Y69469D01*
X84993Y72136D02*
X86009Y72136D01*
X84993Y72136D02*
X84932Y72134D01*
X84871Y72129D01*
X84810Y72119D01*
X84750Y72106D01*
X84691Y72090D01*
X84633Y72070D01*
X84576Y72046D01*
X84521Y72020D01*
X84467Y71989D01*
X84416Y71956D01*
X84366Y71920D01*
X84319Y71880D01*
X84275Y71838D01*
X84233Y71794D01*
X84193Y71747D01*
X84157Y71697D01*
X84124Y71646D01*
X84093Y71592D01*
X84067Y71537D01*
X84043Y71480D01*
X84023Y71422D01*
X84007Y71363D01*
X83994Y71303D01*
X83984Y71242D01*
X83979Y71181D01*
X83977Y71120D01*
X83977Y68580D01*
X83979Y68519D01*
X83984Y68458D01*
X83994Y68397D01*
X84007Y68337D01*
X84023Y68278D01*
X84043Y68220D01*
X84067Y68163D01*
X84093Y68108D01*
X84124Y68054D01*
X84157Y68003D01*
X84193Y67953D01*
X84233Y67906D01*
X84275Y67862D01*
X84319Y67820D01*
X84366Y67780D01*
X84416Y67744D01*
X84467Y67711D01*
X84521Y67680D01*
X84576Y67654D01*
X84633Y67630D01*
X84691Y67610D01*
X84750Y67594D01*
X84810Y67581D01*
X84871Y67571D01*
X84932Y67566D01*
X84993Y67564D01*
X86009Y67564D01*
X87965Y67564D02*
X87965Y72136D01*
X89997Y72136D01*
D11*
X24130Y38100D02*
X24132Y38171D01*
X24138Y38242D01*
X24148Y38313D01*
X24162Y38383D01*
X24180Y38452D01*
X24201Y38519D01*
X24227Y38586D01*
X24256Y38651D01*
X24288Y38714D01*
X24325Y38776D01*
X24364Y38835D01*
X24407Y38892D01*
X24453Y38946D01*
X24502Y38998D01*
X24554Y39047D01*
X24608Y39093D01*
X24665Y39136D01*
X24724Y39175D01*
X24786Y39212D01*
X24849Y39244D01*
X24914Y39273D01*
X24981Y39299D01*
X25048Y39320D01*
X25117Y39338D01*
X25187Y39352D01*
X25258Y39362D01*
X25329Y39368D01*
X25400Y39370D01*
X25471Y39368D01*
X25542Y39362D01*
X25613Y39352D01*
X25683Y39338D01*
X25752Y39320D01*
X25819Y39299D01*
X25886Y39273D01*
X25951Y39244D01*
X26014Y39212D01*
X26076Y39175D01*
X26135Y39136D01*
X26192Y39093D01*
X26246Y39047D01*
X26298Y38998D01*
X26347Y38946D01*
X26393Y38892D01*
X26436Y38835D01*
X26475Y38776D01*
X26512Y38714D01*
X26544Y38651D01*
X26573Y38586D01*
X26599Y38519D01*
X26620Y38452D01*
X26638Y38383D01*
X26652Y38313D01*
X26662Y38242D01*
X26668Y38171D01*
X26670Y38100D01*
X26668Y38029D01*
X26662Y37958D01*
X26652Y37887D01*
X26638Y37817D01*
X26620Y37748D01*
X26599Y37681D01*
X26573Y37614D01*
X26544Y37549D01*
X26512Y37486D01*
X26475Y37424D01*
X26436Y37365D01*
X26393Y37308D01*
X26347Y37254D01*
X26298Y37202D01*
X26246Y37153D01*
X26192Y37107D01*
X26135Y37064D01*
X26076Y37025D01*
X26014Y36988D01*
X25951Y36956D01*
X25886Y36927D01*
X25819Y36901D01*
X25752Y36880D01*
X25683Y36862D01*
X25613Y36848D01*
X25542Y36838D01*
X25471Y36832D01*
X25400Y36830D01*
X25329Y36832D01*
X25258Y36838D01*
X25187Y36848D01*
X25117Y36862D01*
X25048Y36880D01*
X24981Y36901D01*
X24914Y36927D01*
X24849Y36956D01*
X24786Y36988D01*
X24724Y37025D01*
X24665Y37064D01*
X24608Y37107D01*
X24554Y37153D01*
X24502Y37202D01*
X24453Y37254D01*
X24407Y37308D01*
X24364Y37365D01*
X24325Y37424D01*
X24288Y37486D01*
X24256Y37549D01*
X24227Y37614D01*
X24201Y37681D01*
X24180Y37748D01*
X24162Y37817D01*
X24148Y37887D01*
X24138Y37958D01*
X24132Y38029D01*
X24130Y38100D01*
D12*
X36322Y76200D03*
X65278Y76200D03*
X36322Y50800D03*
X65278Y50800D03*
X12700Y26670D03*
X38100Y24130D03*
X63500Y26670D03*
X88900Y24130D03*
M02*
