G04 EAGLE Gerber X2 export*
G75*
%MOMM*%
%FSLAX34Y34*%
%LPD*%
%AMOC8*
5,1,8,0,0,1.08239X$1,22.5*%
G01*
%ADD10C,1.879600*%
%ADD11C,0.406400*%

G36*
X48280Y1274D02*
X48280Y1274D01*
X48299Y1272D01*
X48401Y1294D01*
X48503Y1310D01*
X48520Y1320D01*
X48540Y1324D01*
X48629Y1377D01*
X48720Y1426D01*
X48734Y1440D01*
X48751Y1450D01*
X48818Y1529D01*
X48890Y1604D01*
X48898Y1622D01*
X48911Y1637D01*
X48950Y1733D01*
X48993Y1827D01*
X48995Y1847D01*
X49003Y1865D01*
X49021Y2032D01*
X49021Y18127D01*
X49006Y18223D01*
X48996Y18320D01*
X48986Y18344D01*
X48982Y18369D01*
X48936Y18455D01*
X48896Y18544D01*
X48879Y18564D01*
X48866Y18587D01*
X48796Y18654D01*
X48730Y18726D01*
X48707Y18738D01*
X48688Y18756D01*
X48600Y18797D01*
X48514Y18844D01*
X48489Y18849D01*
X48465Y18860D01*
X48368Y18871D01*
X48272Y18888D01*
X48246Y18884D01*
X48221Y18887D01*
X48125Y18866D01*
X48029Y18852D01*
X48006Y18840D01*
X47980Y18835D01*
X47897Y18785D01*
X47810Y18741D01*
X47791Y18722D01*
X47769Y18709D01*
X47706Y18635D01*
X47638Y18565D01*
X47622Y18536D01*
X47609Y18522D01*
X47597Y18491D01*
X47557Y18418D01*
X47360Y17943D01*
X44287Y14870D01*
X40273Y13207D01*
X35927Y13207D01*
X31913Y14870D01*
X28840Y17943D01*
X27177Y21957D01*
X27177Y26303D01*
X28840Y30317D01*
X31913Y33390D01*
X35927Y35053D01*
X40273Y35053D01*
X44287Y33390D01*
X47360Y30317D01*
X47557Y29842D01*
X47608Y29759D01*
X47654Y29673D01*
X47672Y29655D01*
X47686Y29633D01*
X47762Y29571D01*
X47832Y29504D01*
X47856Y29493D01*
X47876Y29476D01*
X47967Y29441D01*
X48055Y29400D01*
X48081Y29397D01*
X48105Y29388D01*
X48203Y29384D01*
X48299Y29373D01*
X48325Y29379D01*
X48351Y29377D01*
X48445Y29405D01*
X48540Y29425D01*
X48562Y29439D01*
X48587Y29446D01*
X48667Y29502D01*
X48751Y29551D01*
X48768Y29571D01*
X48789Y29586D01*
X48848Y29664D01*
X48911Y29738D01*
X48921Y29763D01*
X48936Y29784D01*
X48966Y29876D01*
X49003Y29967D01*
X49006Y29999D01*
X49012Y30018D01*
X49012Y30051D01*
X49021Y30133D01*
X49021Y71843D01*
X49021Y71847D01*
X49021Y71851D01*
X49001Y71970D01*
X48982Y72086D01*
X48980Y72090D01*
X48979Y72094D01*
X48922Y72199D01*
X48866Y72303D01*
X48864Y72306D01*
X48862Y72310D01*
X48775Y72391D01*
X48688Y72473D01*
X48684Y72475D01*
X48682Y72477D01*
X48573Y72526D01*
X48465Y72576D01*
X48461Y72577D01*
X48457Y72579D01*
X48338Y72591D01*
X48221Y72604D01*
X48217Y72603D01*
X48213Y72603D01*
X48096Y72576D01*
X47980Y72551D01*
X47977Y72549D01*
X47973Y72548D01*
X47872Y72486D01*
X47769Y72425D01*
X47766Y72422D01*
X47763Y72420D01*
X47688Y72330D01*
X47609Y72238D01*
X47608Y72234D01*
X47605Y72231D01*
X47536Y72079D01*
X47386Y71617D01*
X46533Y69943D01*
X45428Y68422D01*
X44100Y67094D01*
X42579Y65989D01*
X40905Y65136D01*
X39118Y64555D01*
X37845Y64354D01*
X37845Y75438D01*
X37842Y75458D01*
X37844Y75477D01*
X37822Y75579D01*
X37805Y75681D01*
X37796Y75698D01*
X37792Y75718D01*
X37739Y75807D01*
X37690Y75898D01*
X37676Y75912D01*
X37666Y75929D01*
X37587Y75996D01*
X37512Y76067D01*
X37494Y76076D01*
X37479Y76089D01*
X37383Y76127D01*
X37289Y76171D01*
X37269Y76173D01*
X37251Y76181D01*
X37084Y76199D01*
X36321Y76199D01*
X36321Y76962D01*
X36318Y76982D01*
X36320Y77001D01*
X36298Y77103D01*
X36281Y77205D01*
X36272Y77222D01*
X36268Y77242D01*
X36215Y77331D01*
X36166Y77422D01*
X36152Y77436D01*
X36142Y77453D01*
X36063Y77520D01*
X35988Y77591D01*
X35970Y77600D01*
X35955Y77613D01*
X35859Y77652D01*
X35765Y77695D01*
X35745Y77697D01*
X35727Y77705D01*
X35560Y77723D01*
X24476Y77723D01*
X24677Y78996D01*
X25258Y80783D01*
X26111Y82457D01*
X27216Y83978D01*
X28544Y85306D01*
X29846Y86252D01*
X29852Y86258D01*
X29859Y86262D01*
X29938Y86345D01*
X30019Y86427D01*
X30023Y86434D01*
X30028Y86440D01*
X30077Y86544D01*
X30127Y86648D01*
X30129Y86656D01*
X30132Y86663D01*
X30145Y86777D01*
X30160Y86892D01*
X30158Y86900D01*
X30159Y86907D01*
X30135Y87020D01*
X30112Y87133D01*
X30108Y87140D01*
X30107Y87148D01*
X30048Y87246D01*
X29991Y87347D01*
X29985Y87352D01*
X29981Y87359D01*
X29893Y87434D01*
X29807Y87511D01*
X29800Y87514D01*
X29794Y87519D01*
X29686Y87562D01*
X29581Y87607D01*
X29573Y87608D01*
X29565Y87611D01*
X29399Y87629D01*
X12700Y87629D01*
X12674Y87625D01*
X12625Y87626D01*
X10544Y87421D01*
X10517Y87413D01*
X10489Y87413D01*
X10327Y87366D01*
X6482Y85773D01*
X6426Y85739D01*
X6366Y85713D01*
X6301Y85661D01*
X6273Y85644D01*
X6260Y85629D01*
X6235Y85608D01*
X3292Y82665D01*
X3253Y82612D01*
X3207Y82565D01*
X3167Y82492D01*
X3148Y82465D01*
X3142Y82447D01*
X3127Y82418D01*
X1534Y78573D01*
X1527Y78545D01*
X1514Y78520D01*
X1479Y78356D01*
X1274Y76275D01*
X1276Y76248D01*
X1271Y76200D01*
X1271Y33593D01*
X1272Y33585D01*
X1271Y33577D01*
X1292Y33464D01*
X1310Y33350D01*
X1314Y33343D01*
X1316Y33336D01*
X1372Y33234D01*
X1426Y33133D01*
X1431Y33128D01*
X1435Y33121D01*
X1521Y33043D01*
X1604Y32964D01*
X1611Y32960D01*
X1617Y32955D01*
X1723Y32909D01*
X1827Y32860D01*
X1835Y32859D01*
X1842Y32856D01*
X1957Y32846D01*
X2071Y32833D01*
X2079Y32835D01*
X2087Y32834D01*
X2199Y32861D01*
X2312Y32885D01*
X2319Y32889D01*
X2326Y32891D01*
X2424Y32952D01*
X2523Y33011D01*
X2528Y33018D01*
X2535Y33022D01*
X2648Y33146D01*
X3594Y34448D01*
X4922Y35776D01*
X6443Y36881D01*
X8117Y37734D01*
X9904Y38315D01*
X11177Y38516D01*
X11177Y27432D01*
X11180Y27412D01*
X11178Y27393D01*
X11200Y27291D01*
X11217Y27189D01*
X11226Y27172D01*
X11230Y27152D01*
X11283Y27063D01*
X11332Y26972D01*
X11346Y26958D01*
X11356Y26941D01*
X11435Y26874D01*
X11510Y26803D01*
X11528Y26794D01*
X11543Y26781D01*
X11639Y26743D01*
X11733Y26699D01*
X11753Y26697D01*
X11771Y26689D01*
X11938Y26671D01*
X12701Y26671D01*
X12701Y26669D01*
X11938Y26669D01*
X11918Y26666D01*
X11899Y26668D01*
X11797Y26646D01*
X11695Y26629D01*
X11678Y26620D01*
X11658Y26616D01*
X11569Y26563D01*
X11478Y26514D01*
X11464Y26500D01*
X11447Y26490D01*
X11380Y26411D01*
X11309Y26336D01*
X11300Y26318D01*
X11287Y26303D01*
X11248Y26207D01*
X11205Y26113D01*
X11203Y26093D01*
X11195Y26075D01*
X11177Y25908D01*
X11177Y14824D01*
X9904Y15025D01*
X8117Y15606D01*
X6443Y16459D01*
X4922Y17564D01*
X3594Y18892D01*
X2648Y20194D01*
X2642Y20200D01*
X2638Y20207D01*
X2555Y20286D01*
X2473Y20367D01*
X2466Y20371D01*
X2460Y20376D01*
X2356Y20425D01*
X2252Y20475D01*
X2244Y20477D01*
X2237Y20480D01*
X2123Y20493D01*
X2008Y20508D01*
X2000Y20506D01*
X1993Y20507D01*
X1880Y20483D01*
X1767Y20460D01*
X1760Y20456D01*
X1752Y20455D01*
X1654Y20396D01*
X1553Y20339D01*
X1548Y20333D01*
X1541Y20329D01*
X1466Y20241D01*
X1389Y20155D01*
X1386Y20148D01*
X1381Y20142D01*
X1338Y20034D01*
X1293Y19929D01*
X1292Y19921D01*
X1289Y19913D01*
X1271Y19747D01*
X1271Y12700D01*
X1275Y12674D01*
X1275Y12669D01*
X1273Y12650D01*
X1275Y12642D01*
X1274Y12625D01*
X1479Y10544D01*
X1487Y10517D01*
X1487Y10489D01*
X1534Y10327D01*
X3127Y6482D01*
X3161Y6426D01*
X3187Y6366D01*
X3239Y6301D01*
X3256Y6273D01*
X3271Y6260D01*
X3292Y6235D01*
X6235Y3292D01*
X6288Y3253D01*
X6335Y3207D01*
X6408Y3167D01*
X6435Y3148D01*
X6453Y3142D01*
X6482Y3127D01*
X10327Y1534D01*
X10355Y1527D01*
X10380Y1514D01*
X10544Y1479D01*
X12625Y1274D01*
X12652Y1276D01*
X12700Y1271D01*
X48260Y1271D01*
X48280Y1274D01*
G37*
G36*
X88926Y1275D02*
X88926Y1275D01*
X88975Y1274D01*
X91056Y1479D01*
X91083Y1487D01*
X91111Y1487D01*
X91273Y1534D01*
X95118Y3127D01*
X95174Y3161D01*
X95234Y3187D01*
X95299Y3239D01*
X95327Y3256D01*
X95340Y3271D01*
X95365Y3292D01*
X98308Y6235D01*
X98347Y6288D01*
X98393Y6335D01*
X98433Y6408D01*
X98452Y6435D01*
X98458Y6453D01*
X98473Y6482D01*
X100066Y10327D01*
X100073Y10355D01*
X100086Y10380D01*
X100121Y10544D01*
X100326Y12625D01*
X100324Y12652D01*
X100329Y12700D01*
X100329Y17207D01*
X100328Y17215D01*
X100329Y17223D01*
X100308Y17336D01*
X100290Y17450D01*
X100286Y17457D01*
X100284Y17464D01*
X100228Y17566D01*
X100174Y17667D01*
X100169Y17672D01*
X100165Y17679D01*
X100079Y17757D01*
X99996Y17836D01*
X99989Y17840D01*
X99983Y17845D01*
X99877Y17891D01*
X99773Y17940D01*
X99765Y17941D01*
X99758Y17944D01*
X99643Y17954D01*
X99529Y17967D01*
X99521Y17965D01*
X99513Y17966D01*
X99401Y17939D01*
X99288Y17915D01*
X99281Y17911D01*
X99274Y17909D01*
X99176Y17848D01*
X99077Y17789D01*
X99072Y17782D01*
X99065Y17778D01*
X98952Y17654D01*
X98006Y16352D01*
X96678Y15024D01*
X95157Y13919D01*
X93483Y13066D01*
X91696Y12485D01*
X90423Y12284D01*
X90423Y23368D01*
X90421Y23379D01*
X90422Y23386D01*
X90421Y23394D01*
X90422Y23407D01*
X90400Y23509D01*
X90383Y23611D01*
X90374Y23628D01*
X90370Y23648D01*
X90317Y23737D01*
X90268Y23828D01*
X90254Y23842D01*
X90244Y23859D01*
X90165Y23926D01*
X90090Y23997D01*
X90072Y24006D01*
X90057Y24019D01*
X89961Y24057D01*
X89867Y24101D01*
X89847Y24103D01*
X89829Y24111D01*
X89662Y24129D01*
X88899Y24129D01*
X88899Y24131D01*
X89662Y24131D01*
X89682Y24134D01*
X89701Y24132D01*
X89803Y24154D01*
X89905Y24171D01*
X89922Y24180D01*
X89942Y24184D01*
X90031Y24237D01*
X90122Y24286D01*
X90136Y24300D01*
X90153Y24310D01*
X90220Y24389D01*
X90291Y24464D01*
X90300Y24482D01*
X90313Y24497D01*
X90352Y24593D01*
X90395Y24687D01*
X90397Y24707D01*
X90405Y24725D01*
X90423Y24892D01*
X90423Y35976D01*
X91696Y35775D01*
X93483Y35194D01*
X95157Y34341D01*
X96678Y33236D01*
X98006Y31908D01*
X98952Y30606D01*
X98958Y30600D01*
X98962Y30593D01*
X99045Y30514D01*
X99127Y30433D01*
X99134Y30429D01*
X99140Y30424D01*
X99244Y30375D01*
X99348Y30325D01*
X99356Y30323D01*
X99363Y30320D01*
X99477Y30307D01*
X99592Y30292D01*
X99600Y30294D01*
X99607Y30293D01*
X99720Y30317D01*
X99833Y30340D01*
X99840Y30344D01*
X99848Y30345D01*
X99946Y30404D01*
X100047Y30461D01*
X100052Y30467D01*
X100059Y30471D01*
X100134Y30559D01*
X100211Y30645D01*
X100214Y30652D01*
X100219Y30658D01*
X100262Y30766D01*
X100307Y30871D01*
X100308Y30879D01*
X100311Y30887D01*
X100329Y31053D01*
X100329Y76200D01*
X100325Y76226D01*
X100326Y76275D01*
X100121Y78356D01*
X100113Y78383D01*
X100113Y78411D01*
X100066Y78573D01*
X98473Y82418D01*
X98439Y82474D01*
X98413Y82534D01*
X98361Y82599D01*
X98344Y82627D01*
X98329Y82640D01*
X98308Y82665D01*
X95365Y85608D01*
X95312Y85647D01*
X95265Y85693D01*
X95192Y85733D01*
X95165Y85752D01*
X95147Y85758D01*
X95118Y85773D01*
X91273Y87366D01*
X91245Y87373D01*
X91220Y87386D01*
X91056Y87421D01*
X88975Y87626D01*
X88948Y87624D01*
X88900Y87629D01*
X70055Y87629D01*
X69959Y87614D01*
X69862Y87604D01*
X69838Y87594D01*
X69812Y87590D01*
X69726Y87544D01*
X69637Y87504D01*
X69618Y87487D01*
X69595Y87474D01*
X69528Y87404D01*
X69456Y87338D01*
X69443Y87315D01*
X69425Y87296D01*
X69384Y87208D01*
X69337Y87122D01*
X69333Y87097D01*
X69322Y87073D01*
X69311Y86976D01*
X69294Y86880D01*
X69297Y86854D01*
X69295Y86829D01*
X69315Y86733D01*
X69329Y86637D01*
X69341Y86614D01*
X69347Y86588D01*
X69397Y86505D01*
X69441Y86418D01*
X69460Y86399D01*
X69473Y86377D01*
X69547Y86314D01*
X69617Y86246D01*
X69645Y86230D01*
X69660Y86217D01*
X69691Y86205D01*
X69764Y86165D01*
X71465Y85460D01*
X74538Y82387D01*
X76201Y78373D01*
X76201Y74027D01*
X74538Y70013D01*
X71465Y66940D01*
X67451Y65277D01*
X63105Y65277D01*
X59091Y66940D01*
X56018Y70013D01*
X54355Y74027D01*
X54355Y78373D01*
X56018Y82387D01*
X59091Y85460D01*
X60792Y86165D01*
X60875Y86216D01*
X60961Y86262D01*
X60979Y86281D01*
X61002Y86294D01*
X61064Y86369D01*
X61131Y86440D01*
X61142Y86464D01*
X61158Y86484D01*
X61193Y86575D01*
X61234Y86663D01*
X61237Y86689D01*
X61247Y86713D01*
X61251Y86811D01*
X61261Y86907D01*
X61256Y86933D01*
X61257Y86959D01*
X61230Y87053D01*
X61209Y87148D01*
X61196Y87170D01*
X61188Y87195D01*
X61133Y87275D01*
X61083Y87359D01*
X61063Y87376D01*
X61048Y87397D01*
X60970Y87456D01*
X60896Y87519D01*
X60872Y87529D01*
X60851Y87544D01*
X60758Y87574D01*
X60668Y87611D01*
X60635Y87614D01*
X60617Y87620D01*
X60584Y87620D01*
X60501Y87629D01*
X53340Y87629D01*
X53320Y87626D01*
X53301Y87628D01*
X53199Y87606D01*
X53097Y87590D01*
X53080Y87580D01*
X53060Y87576D01*
X52971Y87523D01*
X52880Y87474D01*
X52866Y87460D01*
X52849Y87450D01*
X52782Y87371D01*
X52711Y87296D01*
X52702Y87278D01*
X52689Y87263D01*
X52650Y87167D01*
X52607Y87073D01*
X52605Y87053D01*
X52597Y87035D01*
X52579Y86868D01*
X52579Y55157D01*
X52579Y55153D01*
X52579Y55149D01*
X52599Y55031D01*
X52619Y54914D01*
X52620Y54910D01*
X52621Y54906D01*
X52678Y54801D01*
X52734Y54697D01*
X52736Y54694D01*
X52738Y54690D01*
X52826Y54609D01*
X52912Y54527D01*
X52916Y54525D01*
X52919Y54523D01*
X53027Y54474D01*
X53135Y54424D01*
X53139Y54423D01*
X53143Y54421D01*
X53262Y54409D01*
X53379Y54396D01*
X53383Y54397D01*
X53387Y54397D01*
X53503Y54423D01*
X53620Y54449D01*
X53623Y54451D01*
X53627Y54452D01*
X53727Y54513D01*
X53831Y54575D01*
X53834Y54578D01*
X53837Y54580D01*
X53913Y54670D01*
X53991Y54762D01*
X53992Y54766D01*
X53995Y54769D01*
X54064Y54921D01*
X54214Y55383D01*
X55067Y57057D01*
X56172Y58578D01*
X57500Y59906D01*
X59021Y61011D01*
X60695Y61864D01*
X62482Y62445D01*
X63755Y62646D01*
X63755Y51562D01*
X63758Y51542D01*
X63756Y51523D01*
X63778Y51421D01*
X63795Y51319D01*
X63804Y51302D01*
X63808Y51282D01*
X63861Y51193D01*
X63910Y51102D01*
X63924Y51088D01*
X63934Y51071D01*
X64013Y51004D01*
X64088Y50933D01*
X64106Y50924D01*
X64121Y50911D01*
X64217Y50873D01*
X64311Y50829D01*
X64331Y50827D01*
X64349Y50819D01*
X64516Y50801D01*
X65279Y50801D01*
X65279Y50038D01*
X65282Y50018D01*
X65280Y49999D01*
X65302Y49897D01*
X65319Y49795D01*
X65328Y49778D01*
X65332Y49758D01*
X65385Y49669D01*
X65434Y49578D01*
X65448Y49564D01*
X65458Y49547D01*
X65537Y49480D01*
X65612Y49409D01*
X65630Y49400D01*
X65645Y49387D01*
X65741Y49348D01*
X65835Y49305D01*
X65855Y49303D01*
X65873Y49295D01*
X66040Y49277D01*
X77124Y49277D01*
X76923Y48004D01*
X76342Y46217D01*
X75489Y44543D01*
X74384Y43022D01*
X73056Y41694D01*
X71535Y40589D01*
X69861Y39736D01*
X68074Y39155D01*
X66274Y38870D01*
X66238Y38858D01*
X66200Y38855D01*
X66122Y38820D01*
X66040Y38793D01*
X66010Y38770D01*
X65975Y38755D01*
X65912Y38697D01*
X65844Y38645D01*
X65822Y38614D01*
X65794Y38588D01*
X65753Y38513D01*
X65704Y38443D01*
X65694Y38406D01*
X65676Y38373D01*
X65660Y38288D01*
X65637Y38206D01*
X65639Y38168D01*
X65632Y38131D01*
X65644Y38046D01*
X65648Y37960D01*
X65662Y37925D01*
X65668Y37887D01*
X65706Y37811D01*
X65738Y37731D01*
X65762Y37702D01*
X65779Y37668D01*
X65840Y37608D01*
X65895Y37542D01*
X65927Y37523D01*
X65955Y37496D01*
X66102Y37415D01*
X69687Y35930D01*
X72760Y32857D01*
X74423Y28843D01*
X74423Y24497D01*
X72760Y20483D01*
X69687Y17410D01*
X65673Y15747D01*
X61327Y15747D01*
X57313Y17410D01*
X54240Y20483D01*
X54043Y20958D01*
X53992Y21041D01*
X53946Y21127D01*
X53928Y21145D01*
X53914Y21167D01*
X53839Y21229D01*
X53768Y21296D01*
X53744Y21307D01*
X53724Y21324D01*
X53633Y21359D01*
X53545Y21400D01*
X53519Y21403D01*
X53495Y21412D01*
X53397Y21416D01*
X53301Y21427D01*
X53275Y21421D01*
X53249Y21423D01*
X53155Y21395D01*
X53060Y21375D01*
X53038Y21361D01*
X53013Y21354D01*
X52933Y21298D01*
X52849Y21249D01*
X52832Y21229D01*
X52811Y21214D01*
X52753Y21136D01*
X52689Y21062D01*
X52679Y21037D01*
X52664Y21016D01*
X52634Y20924D01*
X52597Y20833D01*
X52594Y20801D01*
X52588Y20783D01*
X52588Y20749D01*
X52579Y20667D01*
X52579Y2032D01*
X52582Y2012D01*
X52580Y1993D01*
X52602Y1891D01*
X52619Y1789D01*
X52628Y1772D01*
X52632Y1752D01*
X52685Y1663D01*
X52734Y1572D01*
X52748Y1558D01*
X52758Y1541D01*
X52837Y1474D01*
X52912Y1402D01*
X52930Y1394D01*
X52945Y1381D01*
X53041Y1342D01*
X53135Y1299D01*
X53155Y1297D01*
X53173Y1289D01*
X53340Y1271D01*
X88900Y1271D01*
X88926Y1275D01*
G37*
%LPC*%
G36*
X34149Y39877D02*
X34149Y39877D01*
X30135Y41540D01*
X27062Y44613D01*
X25399Y48627D01*
X25399Y52973D01*
X27062Y56987D01*
X30135Y60060D01*
X34149Y61723D01*
X38495Y61723D01*
X42509Y60060D01*
X45582Y56987D01*
X47245Y52973D01*
X47245Y48627D01*
X45582Y44613D01*
X42509Y41540D01*
X38495Y39877D01*
X34149Y39877D01*
G37*
%LPD*%
%LPC*%
G36*
X66801Y52323D02*
X66801Y52323D01*
X66801Y62646D01*
X68074Y62445D01*
X69861Y61864D01*
X71535Y61011D01*
X73056Y59906D01*
X74384Y58578D01*
X75489Y57057D01*
X76342Y55383D01*
X76923Y53596D01*
X77124Y52323D01*
X66801Y52323D01*
G37*
%LPD*%
%LPC*%
G36*
X14223Y28193D02*
X14223Y28193D01*
X14223Y38516D01*
X15496Y38315D01*
X17283Y37734D01*
X18957Y36881D01*
X20478Y35776D01*
X21806Y34448D01*
X22911Y32927D01*
X23764Y31253D01*
X24345Y29466D01*
X24546Y28193D01*
X14223Y28193D01*
G37*
%LPD*%
%LPC*%
G36*
X77054Y25653D02*
X77054Y25653D01*
X77255Y26926D01*
X77836Y28713D01*
X78689Y30387D01*
X79794Y31908D01*
X81122Y33236D01*
X82643Y34341D01*
X84317Y35194D01*
X86104Y35775D01*
X87377Y35976D01*
X87377Y25653D01*
X77054Y25653D01*
G37*
%LPD*%
%LPC*%
G36*
X14223Y25147D02*
X14223Y25147D01*
X24546Y25147D01*
X24345Y23874D01*
X23764Y22087D01*
X22911Y20413D01*
X21806Y18892D01*
X20478Y17564D01*
X18957Y16459D01*
X17283Y15606D01*
X15496Y15025D01*
X14223Y14824D01*
X14223Y25147D01*
G37*
%LPD*%
%LPC*%
G36*
X33526Y64555D02*
X33526Y64555D01*
X31739Y65136D01*
X30065Y65989D01*
X28544Y67094D01*
X27216Y68422D01*
X26111Y69943D01*
X25258Y71617D01*
X24677Y73404D01*
X24476Y74677D01*
X34799Y74677D01*
X34799Y64354D01*
X33526Y64555D01*
G37*
%LPD*%
%LPC*%
G36*
X86104Y12485D02*
X86104Y12485D01*
X84317Y13066D01*
X82643Y13919D01*
X81122Y15024D01*
X79794Y16352D01*
X78689Y17873D01*
X77836Y19547D01*
X77255Y21334D01*
X77054Y22607D01*
X87377Y22607D01*
X87377Y12284D01*
X86104Y12485D01*
G37*
%LPD*%
D10*
X36322Y76200D03*
X65278Y76200D03*
X36322Y50800D03*
X65278Y50800D03*
X12700Y26670D03*
X38100Y24130D03*
X63500Y26670D03*
X88900Y24130D03*
D11*
X38100Y49022D02*
X36322Y50800D01*
M02*
